<svg xmlns="http://www.w3.org/2000/svg" xmlns:cc="http://creativecommons.org/ns#" xmlns:dc="http://purl.org/dc/elements/1.1/" xmlns:rdf="http://www.w3.org/1999/02/22-rdf-syntax-ns#" width="121" height="90" version="1.1" viewBox="0 0 121 90">
 <metadata>
  <rdf:RDF>
   <cc:Work rdf:about="">
    <dc:format>image/svg+xml</dc:format>
    <dc:type rdf:resource="http://purl.org/dc/dcmitype/StillImage"/>
    <dc:title/>
   </cc:Work>
  </rdf:RDF>
 </metadata>
 <g transform="translate(1.18e-8 -.876)">
  <path d="m39.3 82.6c-12.4-2.84-23.9-11-28.5-20.4-1.76-3.57-2.28-6.34-2.28-12.1 0-6.49 0.453-8.44 3.3-14.2 2.96-6.02 3.2-7.1 2.26-10.5-1.72-6.2-1.66-6.27 5.32-6.27 5.46 0 7.18-0.482 11.9-3.35 18-10.8 41.7-12.3 59.3-3.69 5.99 2.94 14.1 9.7 13 10.8-0.316 0.316-2.03-0.808-3.81-2.5-14.7-13.9-40.9-16.2-63.1-5.4-12 5.79-11.8 5.43-8.68 18.6l2.59 10.9 7.01-24.9 11.4-0.597 1.02 3.8c0.559 2.09 2.1 7.85 3.42 12.8l2.41 9 1.07-4c3.08-11.5 4.19-16.5 4.19-18.9 0-2.52 0.2-2.61 6.02-2.61 5.92 0 6.01 0.0407 5.39 2.5-0.524 2.09-0.272 2.5 1.53 2.5 1.35 0 2.79 1.12 3.86 2.99 1.19 2.09 2.47 3 4.25 3 1.99 0.0049 3.3 1.19 6 5.46 1.9 3 3.72 5.47 4.04 5.5 0.321 0.0264 2.29-2.43 4.37-5.45l3.79-5.5 6.29-0.116c4.89-0.0903 6.82-0.487 6.23 0.462-0.425 0.687-4.01 6.07-7.46 10.8l-6.27 8.7 5.33 7.8c2.93 4.29 6.13 9.04 7.1 10.6l1.76 2.75-13.7-0.0175-7.8-12.1-3.98 6.06c-3.6 5.48-4.31 6.06-7.44 6.06-2.51 0-4.58 0.959-7.52 3.47-2.23 1.91-5.64 3.99-7.58 4.63-3.09 1.02-3.69 0.932-4.93-0.72-1.39-1.85-1.32-4.82 0.302-13.6l0.687-3.7-11.7-0.607-2.93-11.2c-1.61-6.17-3.21-11-3.56-10.8s-1.97 5.39-3.6 11.5l-2.97 11.1-12.9-0.576-1.72-6c-0.948-3.3-2.73-9.78-3.95-14.4l-2.23-8.41-2.57 4.91c-3.39 6.48-3.71 18.7-0.647 24.9 2.69 5.45 9.3 11.8 15.4 15 16 8.11 42 7.07 56.8-2.28 3.08-1.94 4.09-3.14 3.68-4.42-0.45-1.42 0.0492-1.75 2.63-1.75 2.81 0 3.11 0.262 2.58 2.25-0.332 1.24-0.609 2.64-0.617 3.11-0.0075 0.471-0.695 0.596-1.53 0.276s-4.43 1.02-8 2.98-8.85 4.21-11.7 5c-7.84 2.15-25 2.64-32.5 0.935zm29.9-8.69c3.09-2.2 3.63-3.12 1.32-2.23-2.71 1.04-2.61-2.1 0.454-14.6 2.01-8.22 2.69-12.7 2.03-13.4s-2.55-0.237-5.62 1.25c-4.06 1.97-4.42 2.4-2.96 3.47 1.54 1.13 1.48 2-0.873 11.7-1.4 5.77-2.54 12-2.54 13.8-0.0012 3.15 0.169 3.32 2.69 2.68 1.48-0.371 3.95-1.58 5.5-2.68zm9.64-14.9 5.94-8.5-4.63-6.75c-4.29-6.24-4.9-6.75-8.28-6.75-2.4-0.0033-3.85 0.533-4.25 1.58-1.09 2.85-0.648 3.26 2.31 2.14 2.25-0.848 3.28-0.8 4.5 0.209 2.18 1.81 1.96 5.96-0.92 17.1-1.35 5.22-2.47 9.93-2.48 10.4-0.0311 1.47 1.32-0.165 7.81-9.45zm-4.35-25.6c2.48-2.48 1.55-5.81-1.72-6.19-2.13-0.245-3 0.253-3.9 2.22-2.03 4.45 2.18 7.42 5.62 3.97z" fill="#fe8d8f" style="fill:#fe2424"/>
  <path d="m-313 90.5c-0.174-0.169-1.67-0.55-3.32-0.847-7.19-1.3-8.86-1.87-14.4-4.92-9.85-5.45-15.3-11.4-17.6-19.1-2.57-8.53-0.0216-21.8 5.27-27.4 0.693-0.74 1-1.76 0.693-2.26-0.531-0.86-0.882-2.19-2.02-7.67-0.447-2.15-0.18-2.25 6-2.25 6.14 0 11.6-1.44 11.6-3.07 0-0.843 13.3-6.55 17-7.32 1.35-0.278 3.58-0.787 4.96-1.13 3.85-0.963 18-1.15 22.8-0.298 9.14 1.64 20.7 7.29 25.9 12.7 3.62 3.73 1.72 3.87-2.12 0.158-3.6-3.49-5.6-4.81-12.1-7.98-5.7-2.79-8.65-3.32-20.5-3.69-9.98-0.308-20.1 1.1-24.7 3.46-0.967 0.49-3.54 1.66-5.72 2.6-6.23 2.68-11.7 7.43-11 9.57 0.316 0.996 0.804 2.86 1.08 4.14 1.42 6.51 2.32 10.5 2.89 12.8 0.201 0.825 0.399 1.91 0.442 2.42 0.0983 1.18 1.39-0.0956 1.72-1.7 0.139-0.672 0.522-2.53 0.852-4.13s0.984-3.62 1.45-4.5c0.47-0.877 0.861-1.82 0.871-2.1 0.0444-1.32 1.45-6.8 2.38-9.25 0.934-2.47 1.53-2.75 5.8-2.75 5.55 0 6.38 0.787 7.9 7.5 0.624 2.75 1.35 5.79 1.62 6.75 0.449 1.63 1.1 4.2 1.96 7.75 0.201 0.825 0.413 1.95 0.472 2.5 0.141 1.31 2.05-1.99 2.61-4.52 0.241-1.09 0.664-2.88 0.939-3.98 1.28-5.13 1.61-6.82 2.17-11.2l0.605-4.75h5.86c6.26 0 6.41 0.0972 4.83 3.07-0.884 1.65-0.699 1.93 1.26 1.93 2.13 0 5.48 3.52 4.99 5.25-0.117 0.412 1.27 0.75 3.09 0.75 2.9 0 3.71 0.65 6.75 5.45 1.9 3 3.72 5.47 4.04 5.5 0.321 0.0264 2.29-2.43 4.37-5.45l3.79-5.5h6.44c4.89 0 6.25 0.3 5.67 1.25-0.425 0.687-3.59 5.16-7.04 9.95l-6.27 8.7 5.33 7.8c2.93 4.29 6.13 9.04 7.1 10.6l1.76 2.75-13.7-0.0175-7.8-12.1-3.98 6.06c-3.58 5.44-4.33 6.06-7.38 6.06-2.46 0-4.8 1.11-8.46 4-2.78 2.2-5.58 4.03-6.22 4.08-0.638 0.0421-1.97 0.231-2.97 0.42-2.18 0.415-3.74-3.06-3.2-7.16 0.205-1.56 0.403-3.18 0.441-3.59s0.41-0.75 0.826-0.75 0.596 2.02 0.399 4.5c-0.405 5.09 9e-3 5.29 5.82 2.77 4.15-1.8 6.39-4.59 3.26-4.06-2.37 0.397-2.28-1.89 0.498-12.7 4.36-17 4.15-17.8-3.59-13.8-4.49 2.31-4.96 2.81-3.24 3.45 1.37 0.506 1.86 1.39 1.55 2.79-0.501 2.27-1.42 6-1.85 7.55-0.155 0.55-0.628 2.69-1.05 4.75-0.909 4.42-2.4 5.09-1.77 0.803 0.431-2.94 0.412-2.95-5.18-3.25-3.09-0.167-5.67-0.753-5.73-1.3s-0.562-2.12-1.12-3.5-1.41-4.3-1.9-6.5-1.07-4.68-1.3-5.5c-0.223-0.825-0.439-1.98-0.481-2.56-0.133-1.85-2.73-4.89-2.84-3.32-0.144 2.16-1.29 7.15-1.85 8.06-0.277 0.449-0.691 1.61-0.919 2.57-0.228 0.965-0.905 3.55-1.5 5.75-0.6 2.2-1.14 4.56-1.2 5.25-0.072 0.856-2.08 1.25-6.37 1.25-6.29 0-7.04-0.452-7.49-4.5-0.0608-0.55-0.495-1.72-0.964-2.6-0.47-0.877-1.08-2.68-1.35-4-0.513-2.48-0.798-3.62-2.61-10.4-0.588-2.2-1.19-4.57-1.34-5.28-0.15-0.703-0.688-1.15-1.2-1-1.32 0.396-4.41 6.74-5.01 10.3-0.281 1.65-0.743 3.77-1.03 4.7-0.88 2.9 2.93 14.6 6.06 18.6 4.51 5.78 12.1 10.9 19 12.7 1.65 0.439 3.45 0.917 4 1.06 12.8 3.38 31.5 1.58 42-4.05 7.33-3.93 8.6-4.97 8.15-6.72-0.341-1.33 0.171-1.66 2.33-1.5 1.86 0.136 2.67 0.692 2.47 1.7-0.163 0.825-0.331 1.84-0.374 2.25-0.0421 0.412-1.02 0.75-2.17 0.75s-3.29 0.847-4.75 1.88c-3.62 2.57-10.9 5.81-15.2 6.72-1.92 0.417-4.18 0.913-5 1.1-2.05 0.472-20.8 1.17-21.2 0.785zm34-24.5 5.94-8.5-4.87-7.05c-4.62-6.69-5.05-7.03-8.27-6.65-2.44 0.285-3.72 1.1-4.55 2.92-1.03 2.25-0.958 2.44 0.633 1.78 4.23-1.78 6.11-1.68 7.2 0.36 1.19 2.23 0.576 10.4-1.01 13.3-0.538 1-0.777 1.83-0.533 1.83s-0.184 2.36-0.953 5.25c-2.46 9.24-2.24 9.13 6.41-3.25zm-4.35-25.6c0.895-0.895 1.49-2.8 1.32-4.23-0.422-3.6-4.68-3.62-6.7-0.026-2.69 4.79 1.51 8.12 5.38 4.25z" fill="#a8a8a9"/>
  <path d="m47.2 83.3c-17.6-2.03-30.5-9.57-36.2-21.1-4.09-8.36-3.81-17 0.841-26.1 2.45-4.77 3.08-7.44 2.62-9.17-0.727-2.77-1.65-5.28-1.87-8.13l6.29 0.306c5.75 0.279 6.89-0.0328 13.3-3.63 18.4-10.4 41.3-11.7 58-3.28 5.05 2.54 12.5 8.55 12.5 10.1 0 0.625-1.69-0.472-3.75-2.44-9.35-8.91-20.1-12.3-36.7-11.6-12.8 0.554-21.3 3-30.9 8.85-5.36 3.26-6.11 4.1-5.92 6.55 0.315 4.04 4.4 21.6 4.9 21.1 0.235-0.235 1.33-3.75 2.44-7.82 1.11-4.07 2.68-9.75 3.5-12.6l1.49-5.25h4.94c5.96 0 5.81-0.24 9.5 14.8 1.52 6.23 3.11 11 3.53 10.5 1.09-1.18 3.26-18.7 4.19-22.3l0.792-3.06h5.62c5.45 0 5.6 0.0734 5.14 2.5-0.359 1.88-0.0524 2.5 1.23 2.5 1.89 0 5.02 3.01 5.02 4.83 0 0.644 1.33 1.17 2.96 1.17 2.51 0 3.6 0.937 7.09 6.08l4.13 6.08 8.31-12.1 12.4-0.06-6.28 8.75c-3.45 4.81-6.33 10.4-6.75 11.1-0.491 0.821 2.05 4.06 6.56 10.7l7.02 10.5-13.6-0.0596-7.97-12.1-3.58 5.65c-3.64 5.31-4.05 6.14-6.95 6.42-1.87 0.178-5.83 0.955-6.93 1.96-3.36 3.06-8.88 6.02-11.2 6.03-3.13 5e-3 -4.48-3.04-3.38-7.68l0.898-3.82 0.697 3.93c0.0754 3.57-0.112 5.57 1.04 5.57 2.12 0 8.8-3.5 10.4-5.46 1.19-1.43 1.05-1.5-1.28-0.611-1.44 0.546-2.84 0.63-3.11 0.186-0.275-0.444 0.921-6.73 2.66-14 3.62-15.1 3.32-16.5-2.86-13.3-2.13 1.1-4.77 2.74-5.87 3.63-1.97 1.61-1.97 1.62 0.25 1.01 2.84-0.782 2.89 1.09 0.313 11.5-1.35 5.44-1.88 6.61-1.96 4.25-0.104-3.25-0.107-3.25-5.45-3.25h-5.34l-1.64-5.75c-0.901-3.16-2.38-8.56-3.29-12-0.909-3.44-1.94-6.25-2.3-6.25s-1.48 3.26-2.51 7.25-2.49 9.39-3.26 12l-1.4 4.75h-11.8l-1.5-5.25c-0.823-2.89-2.5-9.08-3.74-13.8-1.23-4.68-2.6-8.92-3.05-9.43-0.452-0.515-1.99 1.64-3.46 4.87-8.36 18.3 2.58 37 25.2 43.1 7.76 2.1 24.9 2.08 32.8-0.0228 7.54-2.01 17.6-7.52 18.2-9.83 0.132-0.504-0.214-1.91 0.117-2.2 1.29-1.1 6.54-1.71 6.54 0.273 0 1.23-1.63 5.43-2.74 5.35-0.374-0.0269-0.343-0.57-1.39-0.395-1.65 0.277-4.23 1.19-5.6 2.1-2.24 1.48-6.67 3.09-9.7 4.15-5.05 1.77-20.2 4.25-23.8 3.89-0.839-0.0824-2.88-0.305-4.53-0.496zm31-23c2.75-4.14 5.4-8.1 5.89-8.79 0.594-0.838-0.716-3.55-3.97-8.21-4.57-6.55-5.08-6.96-8.62-6.92-3.22 0.035-3.9 0.452-4.76 2.89-0.847 2.42-0.76 2.76 0.579 2.25 4.71-1.81 6.24-1.74 7.35 0.33 1.22 2.28 0.863 5.23-2.07 17.1-1.02 4.12-1.86 8.05-1.87 8.72-0.0323 2.57 2.67-0.0848 7.48-7.34zm-3.55-26.8c1.76-2.12 0.918-6.97-1.27-7.39-3.59-0.682-7.49 5.68-5.01 8.16 1.18 1.18 5.05 0.708 6.28-0.773z" fill="#fe4749" style="fill:#fe2424"/>
  <path d="m-138 119c0.973-0.254 2.32-0.237 3 0.037 0.677 0.274-0.119 0.481-1.77 0.461-1.65-0.0204-2.2-0.244-1.23-0.498zm18.5 0.01c0.722-0.289 1.58-0.253 1.92 0.079 0.332 0.332-0.258 0.569-1.31 0.525-1.16-0.048-1.4-0.285-0.604-0.604zm6-1c0.722-0.289 1.58-0.253 1.92 0.079 0.332 0.332-0.258 0.569-1.31 0.525-1.16-0.048-1.4-0.285-0.604-0.604zm-40.1-3.38c-2.06-1.09-3.75-2.2-3.75-2.48 0-0.446 7.9 3.25 8.92 4.17 1.15 1.04-1.85 0.0583-5.17-1.69zm32.9 0.401c-0.367-0.367-0.595-2.73-0.507-5.25 0.138-3.95 0.212-4.1 0.539-1.08 0.656 6.07 0.832 6.22 5.02 4.48 2.07-0.864 4.78-2.53 6.02-3.69 1.24-1.17 2.57-1.82 2.94-1.44 0.814 0.814-1.81 2.98-6.88 5.68-3.86 2.06-5.99 2.45-7.12 1.31zm-41.7-6.22c-1.91-1.59-4.28-4.4-5.27-6.25-1.68-3.15-1.68-3.21-0.0178-0.861 0.977 1.38 3.58 4.19 5.79 6.25 4.75 4.44 4.44 4.97-0.504 0.861zm71-1.08c-0.925-1.73-0.785-2.03 0.95-2.03 1.12 0 2.04 0.648 2.04 1.44 0 2.39-1.83 2.75-2.98 0.587zm-21-1.65c0-0.894 1.19-6.69 2.65-12.9 1.46-6.19 2.36-12 2-12.9-0.787-2.05-3.49-1.43-8.91 2.06-4.06 2.62-4.96 4.52-1.75 3.68 2.46-0.643 2.46 0.0119 0.063 9.71-1.06 4.3-1.9 6.33-1.96 4.75-0.1-2.65-0.307-2.75-5.49-2.75h-5.38l-3.28-12.5c-1.81-6.89-3.59-12.2-3.97-11.8-0.377 0.431-1.46 3.71-2.42 7.28-0.953 3.58-2.4 8.86-3.22 11.8l-1.49 5.25h-11.6l-3.11-11.3c-1.71-6.22-3.4-12.7-3.75-14.5-0.756-3.78-1.56-3.98-3.81-0.946-0.918 1.24-1.35 1.58-0.97 0.75s1.35-2.26 2.14-3.18c1.26-1.47 1.25-2.32-0.02-6.67l-1.46-4.99 6.79-0.327c5.2-0.25 6.55-0.0459 5.79 0.875-0.683 0.82-0.162 4.94 1.64 13 1.45 6.48 2.82 12 3.03 12.2 0.216 0.216 0.695-0.898 1.07-2.48 0.37-1.58 1.91-7.37 3.42-12.9l2.75-10 11-0.591 3.37 13c1.85 7.17 3.66 12.7 4.02 12.3 0.95-1.08 4.94-19.3 4.93-22.5-7e-3 -2.67 0.151-2.75 5.57-2.75 4.77 0 5.52 0.251 5.22 1.75-0.231 1.15 0.626 2.17 2.52 2.99 1.58 0.682 3.1 2.14 3.39 3.25 0.371 1.42 1.36 2.01 3.37 2.01 2.36 0 3.55 1.03 6.98 6.08l4.13 6.08 8.31-12.1 12.4-0.06-6.28 8.75c-3.45 4.81-6.63 9.33-7.05 10-0.491 0.821 1.82 5.11 6.33 11.8l7.11 10.5h-13.1l-8.12-12.9-4.26 6.22c-3.95 5.77-4.57 6.25-8.4 6.53-2.52 0.187-4.14-0.121-4.14-0.785 0-0.77-0.57-0.787-1.93-0.0575-2.75 1.47-4.07 1.28-4.07-0.591zm9.13-8.51c2.96-4.41 5.77-8.58 6.26-9.27 0.594-0.837-0.727-3.58-4-8.3-4.73-6.83-5.01-7.04-8.83-6.86-3.35 0.159-4.05 0.585-4.65 2.84-0.706 2.64-0.682 2.65 3.69 2.05l4.4-0.604v4.06c0 3.36-2.59 16.5-4.62 23.5-1.13 3.86 2.58 0.328 7.75-7.38zm-2.1-28.4c1.92-5.05-2.75-8.57-6.45-4.86-1.59 1.59-2.12 5.54-0.905 6.76 0.367 0.367 1.95 0.667 3.52 0.667 2.15 0 3.1-0.637 3.83-2.57zm-66.9 23c0.048-1.16 0.285-1.4 0.604-0.604 0.289 0.722 0.253 1.58-0.0789 1.92-0.332 0.332-0.569-0.258-0.525-1.31zm0-11c0.048-1.16 0.285-1.4 0.604-0.604 0.289 0.722 0.253 1.58-0.0789 1.92-0.332 0.332-0.569-0.258-0.525-1.31zm92.4-23.4c-1.18-1.91-10-7.45-15.5-9.69-3.04-1.25-4.81-2.28-3.93-2.3 2.62-0.039 13.3 5.7 17.5 9.42 2.16 1.91 3.62 3.49 3.24 3.51-0.38 0.0229-0.966-0.403-1.3-0.945zm-67.1-6.46c1.07-0.855 2.38-1.56 2.92-1.56 1.27 0 0.703 0.462-2.36 1.92-2.36 1.12-2.39 1.1-0.559-0.365zm43.4-6.24c0.722-0.289 1.58-0.253 1.92 0.079 0.332 0.332-0.258 0.569-1.31 0.525-1.16-0.048-1.4-0.285-0.604-0.604zm-21.1-0.979c0.688-0.277 1.81-0.277 2.5 0s0.125 0.504-1.25 0.504-1.94-0.227-1.25-0.504zm15 0c0.688-0.277 1.81-0.277 2.5 0s0.125 0.504-1.25 0.504-1.94-0.227-1.25-0.504z" fill="#fe2424"/>
  <path d="m-53.6-60.6c2.63-0.329 3.89-1.5 7.36-6.83 2.31-3.54 4.54-6.22 4.96-5.96s2.51 3.18 4.64 6.48l3.87 6.01 10.6 0.0174-6.56-9.6c-3.61-5.28-6.56-10-6.56-10.5 0-0.498 2.93-4.95 6.51-9.9l6.51-8.99h-4.86c-4.81 0-4.91 0.0668-9.07 6-2.31 3.3-4.54 6-4.95 6-0.41 0-2.48-2.68-4.59-5.95-3.11-4.81-4.44-6.02-6.94-6.34l-3.09-0.392 3.28-0.16c2.99-0.146 3.62 0.377 7 5.79 2.04 3.28 3.94 5.95 4.22 5.95s2.41-2.68 4.74-5.95l4.24-5.95h5.51c3.03 0 5.51 0.267 5.51 0.594 0 0.327-2.63 4.26-5.83 8.75s-6.17 8.74-6.58 9.45c-0.468 0.805 1.91 5.23 6.31 11.8l7.06 10.5h-12.7l-8.51-13.1-4.38 6.53c-3.97 5.92-4.69 6.52-7.61 6.37l-3.23-0.16zm-0.236-11.4c3.06-4.44 5.57-8.32 5.57-8.62s-2.02-3.38-4.5-6.85-4.5-6.67-4.5-7.11c0-0.892 7.19 8.89 9.07 12.3 1.04 1.92 0.522 3.11-4.51 10.2-3.13 4.44-5.92 8.08-6.19 8.08-0.273 0 2.01-3.64 5.07-8.08zm-55.5-0.618c-0.608-1.54-1.69-5.05-2.4-7.8-4.38-16.9-7.44-29.1-7.46-29.8-0.0126-0.441 2.32-0.666 5.19-0.5 5.71 0.331 5.36-0.155 7.3 10.3 0.305 1.65 0.959 4.35 1.45 6s1.23 5.02 1.65 7.5l0.748 4.5 1.26-5c0.696-2.75 1.77-6.8 2.4-9 0.623-2.2 1.69-6.25 2.38-9l1.25-5 10.9-0.588 1.73 6.79c4.12 16.2 5.53 20.7 6.06 19.3 1.12-2.97 3.91-16.6 4.36-21.3l0.457-4.75h5.4c6.38 0 6.86 1.18 2.4 5.84-2.91 3.04-3.97 7.44-2.08 8.61 1.78 1.1-1.11 7.89-4.9 11.5-3.08 2.96-3.61 3.99-2.79 5.45 0.802 1.43 1.18 1.53 1.84 0.461 1.63-2.64 2.19 0.127 0.932 4.62l-1.28 4.58-10.1-0.595-2.28-8c-1.25-4.4-2.88-10.2-3.62-13l-1.34-5-2.23 7.5c-1.23 4.12-2.71 9.3-3.29 11.5-1.74 6.58-2.15 6.98-7.72 7.3-4.83 0.284-5.22 0.129-6.26-2.5z" fill="#5e0901"/>
  <path d="m23.1 53.3c-3.16-10.8-8.13-29.9-8.13-31.1 0-0.71 1.7-1.17 4.33-1.17h4.33l2.18 9.75c3.15 14.1 4.22 17.6 5.08 16.6 0.421-0.478 2.3-6.61 4.17-13.6l3.41-12.7 4.71-0.0031c4.71-0.0031 4.71 0.0022 5.8 4.25 0.601 2.34 1.71 6.5 2.46 9.25s1.87 6.91 2.48 9.25 1.49 4.25 1.95 4.25c0.973 0 4.89-16.6 5.3-22.5l0.282-4 4.75-0.305c5.36-0.344 5.77 0.422 2.4 4.48-3.01 3.62-3.55 5.31-2.56 7.99 1.23 3.32-0.706 8.47-4.58 12.2-1.93 1.86-3.5 3.98-3.5 4.69 0 1.94 1.9 2.75 3.45 1.46 1.13-0.938 1.21-0.485 0.48 2.66-0.484 2.09-0.891 4.13-0.904 4.54-0.0131 0.412-2.23 0.75-4.93 0.75h-4.9l-1.99-6.75c-1.1-3.71-2.51-9-3.14-11.8-1.18-5.16-2.61-8.29-3.41-7.46-0.25 0.259-2 6.1-3.88 13l-3.42 12.5-10.2 0.601z" fill="#030303"/>
  <path transform="translate(-1.18e-8 .876)" d="m61.6 75.5c-0.304-0.747-0.45-3.96-0.247-5.47 0.282-2.1 1.17-6.46 2.35-11.5 2.17-9.3 2.21-9.94 0.625-11.1-1.22-0.927-0.808-1.45 2.39-3.05 2.48-1.24 4.31-1.89 5.33-1.89 1.24 0 1.43 0.59 1.07 3.31-0.298 2.29-0.862 5.03-2.22 10.8-1.26 5.33-2.01 9.01-2.37 11.6l-0.267 1.94 0.448 0.37c0.665 0.549 1.02 0.59 2.07 0.237 1.12-0.379 1.44-0.237 0.875 0.384-0.203 0.222-1.02 0.891-1.82 1.49-2.31 1.73-5.35 3.15-7.21 3.37l-0.825 0.097z" style="fill:#fff;stop-color:#000000;stroke-width:.0573"/>
  <path transform="translate(-1.18e-8 .876)" d="m69.9 33.7c-0.684-0.43-1.25-1.17-1.45-1.89-0.529-1.96 0.861-4.99 2.49-5.43 1.12-0.303 3.06 0.0932 3.91 0.8 0.605 0.502 0.762 0.982 0.762 2.32 0 1.59-0.312 2.36-1.32 3.25-0.968 0.852-1.65 1.13-2.87 1.19-0.846 0.0416-1.16-0.0068-1.52-0.238z" style="fill:#fff;stop-color:#000000;stroke-width:.0573"/>
 </g>
</svg>